<svg id="logo-16" width="109" height="43" viewBox="0 0 109 43" fill="none" xmlns="http://www.w3.org/2000/svg"> <path d="M44.0686 32.3475C46.8118 35.0907 50.0684 37.2667 53.6526 38.7513C57.2367 40.2359 61.0782 41 64.9577 41C68.837 41 72.679 40.2359 76.263 38.7513C79.847 37.2667 83.104 35.0907 85.847 32.3475L64.9577 11.4584L44.0686 32.3475Z" class="ccompli2" fill="#06E07F"></path> <path d="M44.017 32.3429C41.2738 35.0861 38.0171 37.2621 34.433 38.7467C30.8488 40.2313 27.0074 40.9954 23.1279 40.9954C19.2484 40.9954 15.407 40.2313 11.8228 38.7467C8.2387 37.2621 4.982 35.0861 2.2388 32.3429L23.1279 11.4538L44.017 32.3429Z" class="ccustom" fill="#E3073C"></path></svg>